<svg
  version="1.1"
  width="256"
  height="256"
  viewBox="0 0 682.66669 682.66669"
  xmlns="http://www.w3.org/2000/svg"
>
  <path
    fill="hsl(0 84.2% 60.2%)"
    d="m 245.75391,574.43359 c -21.31798,-1.68646 -49.20899,-7.68114 -59.27469,-12.74007 -6.17511,-3.10354 -18.3228,-11.56894 -28.20495,-19.65529 -29.35474,-24.02033 -52.22497,-55.2411 -66.245712,-90.43388 -1.521377,-3.81872 -2.597625,-7.11165 -2.391664,-7.31762 0.205962,-0.20596 5.081694,0.90668 10.834956,2.47253 43.37041,11.804 88.70578,18.99008 146.6543,23.24608 22.926,1.68379 86.16102,1.68402 109.09227,3.8e-4 37.59596,-2.76031 72.85904,-7.1726 100.41829,-12.5648 6.73889,-1.31853 12.41047,-2.23937 12.60352,-2.04633 0.48774,0.48774 -7.23037,12.84886 -13.02558,20.86139 -10.784,14.91011 -25.78383,31.06575 -40.37521,43.48631 -18.94036,16.12255 -46.04275,31.8169 -70.73938,40.96351 -30.42233,11.26718 -66.83958,16.29937 -99.34615,13.72779 z m 12.29173,-231.81175 c -31.55572,-1.05766 -80.6495,-4.94763 -111.83674,-8.86146 -20.82588,-2.61352 -60.388348,-8.99292 -61.302851,-9.885 -0.813216,-0.79328 4.360454,-17.68755 8.936465,-29.18143 23.877206,-59.97401 72.104316,-106.77388 133.195396,-129.25361 13.51473,-4.97302 33.80432,-9.70087 50.90507,-11.86181 10.82262,-1.36761 43.27445,-1.14676 54.20308,0.36888 32.84563,4.55521 60.62878,14.2609 88.11956,30.78346 20.91601,12.57101 40.5052,29.25519 47.35987,40.33657 14.20222,22.95959 24.71766,49.74549 30.16172,76.83071 1.77331,8.82263 4.11669,25.3275 3.66074,25.78344 -0.42299,0.42299 -20.52052,3.53575 -34.82336,5.39353 -27.14546,3.52589 -52.3918,5.87082 -86.10743,7.99783 -18.41244,1.16159 -31.29276,1.4622 -68.95454,1.60938 -25.47202,0.0995 -49.55467,0.0723 -53.51698,-0.0605 z"
  />
  <path
    fill="hsl(0 72.2% 50.6%)"
    d="m 285.15044,592.79778 c -23.3693,-1.63422 -47.40661,-7.15152 -69.96583,-16.05932 -6.72823,-2.65672 -31.43611,-15.0067 -32.76448,-16.37698 -0.37543,-0.38728 0.88647,0.0799 2.80423,1.03813 7.02599,3.51071 27.94527,8.77557 43.61211,10.97609 31.52696,4.42819 61.91667,2.65263 93.0342,-5.43568 27.15879,-7.05932 54.05358,-19.7149 77.54355,-36.48877 19.88914,-14.20261 39.46619,-33.74338 54.16113,-54.06083 4.57825,-6.32996 13.14491,-19.71102 13.14491,-20.53224 0,-2.40932 31.10033,-7.14957 43.43457,-11.88269 1.4551,-0.55837 1.13219,1.0763 -1.51621,7.67548 -11.04508,27.52163 -26.89529,51.80514 -48.05074,73.61671 -38.33927,39.52833 -88.17688,62.76238 -144.30793,67.27567 -8.07828,0.64954 -23.6585,0.77688 -31.12951,0.25443 z M 494.4258,322.98344 c -0.9917,-8.94543 -3.92508,-25.09204 -6.12539,-33.71687 -7.59865,-29.78531 -22.85157,-61.95415 -35.74497,-75.38712 l -5.24131,-5.46065 5.33978,5.11936 c 25.68163,24.62153 46.442,56.98535 57.5788,89.76093 2.37215,6.98126 5.68206,18.22139 5.68206,19.29575 0,0.32911 -4.06996,1.29059 -9.04437,2.1366 -4.97439,0.84601 -9.71002,1.69536 -10.5236,1.88746 -1.35396,0.31968 -1.51667,0.0118 -1.921,-3.63546 z"
  />
  <path
    fill="hsl(0 0% 3.9%)"
    d="m 141.8501,628.29415 c -0.99912,-0.5422 -2.12412,-1.56047 -2.5,-2.26281 -1.79829,-3.36014 -0.92099,-5.88899 11.09484,-31.98121 l 11.79678,-25.61656 -2.27126,-1.71677 C 132.74861,546.1406 112.41822,524.0587 96.184448,497.43547 90.221339,487.65603 80.792381,468.17335 76.720008,457.21687 67.922577,433.54792 63.427666,411.61029 61.8683,384.73241 c -3.32409,-57.29542 15.401883,-115.03824 52.29788,-161.2641 8.86762,-11.10998 26.64331,-28.88816 37.50049,-37.50575 18.13347,-14.39295 41.80044,-28.00386 62.37804,-35.87371 l 8.28863,-3.16996 0.33333,-29.62611 0.33334,-29.626111 1.81925,-4.984953 c 2.22792,-6.104739 6.88314,-13.057969 11.43589,-17.081131 3.97451,-3.512184 12.54851,-7.832463 17.611,-8.873857 4.87551,-1.002929 89.3922,-1.002929 94.26771,0 5.15046,1.059488 13.65937,5.382152 17.80954,9.04753 4.50542,3.979128 9.59172,11.68249 11.53947,17.47688 1.42124,4.228059 1.49911,5.673601 1.83403,34.046822 l 0.34978,29.6313 8.66666,3.40941 c 30.97689,12.18612 57.4971,29.63538 81.91008,53.89361 32.99738,32.78822 55.7195,74.84556 65.0665,120.4344 8.76009,42.72623 6.02747,85.61224 -8.05965,126.48891 -8.54946,24.80801 -22.77025,50.61746 -39.03468,70.84443 -14.37476,17.87691 -27.64643,30.72638 -46.20056,44.7308 l -2.29311,1.73081 11.80572,25.70953 c 8.51775,18.54929 11.80571,26.39456 11.80571,28.16919 0,3.41277 -3.51712,6.993 -6.86973,6.993 -2.64072,0 -3.97333,-0.83753 -37.18215,-23.36853 l -20.76012,-14.085 -8.42734,3.34572 c -29.35603,11.65456 -57.13336,16.89791 -89.42733,16.88062 -16.76382,-0.009 -26.44341,-0.80535 -42.10595,-3.46422 -14.94192,-2.53652 -35.8881,-8.68512 -49.97002,-14.66833 l -5.07597,-2.1567 -22.5907,15.33078 c -12.42489,8.43192 -24.95419,16.87312 -27.84291,18.75822 -5.62189,3.66869 -7.95666,4.16517 -11.23103,2.38824 z M 326.66668,591.6797 c 80.78344,-9.98762 148.22862,-61.56061 178.61554,-136.58112 1.90877,-4.71245 3.30511,-8.73348 3.10297,-8.93561 -0.20213,-0.20214 -5.99649,1.16686 -12.87634,3.04222 -6.87986,1.87535 -14.60884,3.88646 -17.1755,4.46912 -63.18944,14.34476 -131.15071,20.80375 -199.66668,18.97618 -62.8307,-1.67592 -121.63471,-9.7476 -173.15572,-23.76806 -6.31898,-1.71959 -11.694436,-2.92115 -11.945458,-2.67013 -1.088594,1.0886 9.449738,24.75609 16.083478,36.12105 28.43956,48.7228 71.62866,83.49624 125.00711,100.6487 14.77161,4.74666 32.8683,8.28993 49.45232,9.68258 9.46414,0.79475 32.47003,0.26233 42.55828,-0.98493 z M 215.00001,418.59499 c 5.95074,-0.59033 22.80578,-3.67698 27.95656,-5.11966 2.91573,-0.81667 2.76052,-1.81596 -0.43055,-2.77203 -6.69244,-2.0051 -20.15369,-9.70866 -43.19268,-24.71815 -14.01228,-9.12876 -21.03936,-13.12954 -29.79965,-16.96607 -11.21085,-4.90974 -25.64369,-8.3524 -35.0162,-8.3524 -3.24012,0 -3.23454,0.33278 0.18042,10.76124 8.02851,24.51716 18.76133,37.68159 35.7597,43.86138 12.19707,4.43427 24.19224,5.32449 44.5424,3.30569 z m 203.27031,0.004 c 9.98872,-1.35349 20.45782,-5.72314 27.87397,-11.6342 5.16392,-4.11591 11.3969,-12.55237 15.31953,-20.73528 3.41002,-7.11356 9.3008,-24.14472 8.69951,-25.15162 -0.46035,-0.77089 -11.13333,0.0438 -17.49665,1.3355 -16.42929,3.33508 -28.85949,9.52245 -60,29.86614 -11.76003,7.68267 -32.74433,19.05358 -35.16219,19.05358 -0.52191,0 -0.82477,0.37246 -0.67303,0.82768 0.55318,1.65953 22.47638,5.96474 36.16855,7.10266 7.7108,0.64082 17.54583,0.38222 25.27031,-0.66446 z M 346.00001,339.33 c 50.23032,-1.92698 95.78328,-6.002 134.33334,-12.01704 16.61125,-2.59188 33.59918,-5.68991 34.13421,-6.22494 0.63838,-0.63838 -2.89091,-12.90108 -6.6449,-23.08801 -11.71156,-31.7809 -27.38341,-56.26638 -51.45471,-80.39216 -14.03219,-14.06394 -25.1899,-22.87467 -41.10588,-32.45942 -27.37658,-16.48641 -54.83566,-26.04197 -87.92873,-30.59854 -8.68115,-1.19531 -43.35052,-1.1821 -52.66667,0.0201 -39.71042,5.12427 -75.10995,19.5105 -107.28248,43.59916 -10.41496,7.79803 -29.35047,26.22825 -37.84068,36.83089 -18.23487,22.77186 -32.849085,50.76804 -40.498594,77.58241 -2.554811,8.95557 -2.630181,8.80061 4.955087,10.18739 46.971877,8.58765 102.066577,14.29269 159.333337,16.49891 20.13118,0.77556 73.13405,0.81061 92.66667,0.0613 z M 249.69789,139.37235 c 3.28283,-0.71188 11.21878,-2.11757 17.63545,-3.12376 10.94625,-1.71647 13.00458,-1.82983 33.33334,-1.83584 20.26032,-0.006 22.44242,0.11184 33.61824,1.81519 6.57337,1.00188 14.59519,2.41045 17.82628,3.13016 3.23108,0.71972 6.32787,1.30857 6.88175,1.30857 1.54984,0 1.50029,-47.648262 -0.0543,-52.21071 -1.4486,-4.251403 -6.16623,-9.312034 -10.80374,-11.589235 l -3.80158,-1.866723 H 301 257.66666 l -3.71178,1.8229 c -4.78674,2.350816 -8.36342,5.915319 -10.54635,10.510434 l -1.74187,3.666667 -0.20556,23.917847 c -0.11305,13.15482 -0.0475,24.32982 0.14575,24.83334 0.45541,1.1868 0.98551,1.16198 8.09103,-0.37884 z m 344.04018,290.55648 c -0.16136,-0.51085 -0.46621,-2.61257 -0.67743,-4.6705 -0.93197,-9.07973 -5.90189,-21.64879 -12.41915,-31.40832 -4.33232,-6.48761 -12.94009,-15.66686 -19.53741,-20.83453 -3.98825,-3.12399 -4.85799,-4.10017 -4.05399,-4.55011 0.56298,-0.31507 3.93202,-1.19318 7.48676,-1.95137 9.54266,-2.03536 27.46643,-2.03228 35.63407,0.006 17.40546,4.3439 29.78892,11.69605 41.00974,24.34777 l 4.84731,5.46545 -5.31622,0.45348 c -7.59629,0.64799 -12.85405,2.12212 -19.71173,5.52665 -9.74111,4.83602 -17.05128,11.90807 -23.51244,22.74657 -1.91256,3.20828 -3.58716,5.38277 -3.74951,4.86878 z m -38.7695,-72.42882 c 4.4502,-37.45008 25.23515,-68.29476 56.03145,-83.15013 6.71564,-3.23946 18.16996,-7.40214 18.75591,-6.81619 0.20996,0.20997 -0.38006,2.72578 -1.31116,5.5907 -3.18797,9.80914 -4.15912,18.37473 -3.12269,27.54229 1.65851,14.67 6.88121,26.47803 17.60512,39.80349 2.66053,3.30596 4.08991,5.5452 3.35442,5.25497 -2.9725,-1.17296 -11.43138,-3.07748 -16.48058,-3.71059 -22.30295,-2.79656 -48.4386,3.42279 -70.36716,16.74485 -2.33024,1.41567 -4.39071,2.57394 -4.57881,2.57394 -0.18811,0 -0.13704,-1.725 0.1135,-3.83333 z M 70.7868,259.33186 c -26.134984,-25.96 -28.931755,-67.56743 -6.493053,-96.59684 3.464527,-4.48213 10.779098,-11.54364 15.372922,-14.84107 27.737991,-19.91021 67.289911,-17.57643 91.874331,5.42108 2.45245,2.29415 4.45866,4.36179 4.45824,4.59475 -4.3e-4,0.23295 -3.35242,2.52356 -7.44887,5.09022 -16.70578,10.46714 -31.06992,22.21845 -46.5566,38.08798 -17.37153,17.80098 -30.223252,35.51456 -41.654096,57.41203 -1.770507,3.39166 -3.435778,6.16666 -3.700602,6.16666 -0.264825,0 -2.898347,-2.40066 -5.852272,-5.33481 z m 4.736901,-15.98557 1.857033,-2.62526 -2.727859,-3.99631 C 66.48102,224.75295 61.810796,204.77683 63.358707,188.41576 c 0.341978,-3.61463 0.924496,-7.66188 1.294485,-8.9939 0.815481,-2.93586 0.836262,-3.42185 0.14632,-3.42185 -0.908218,0 -3.380156,5.74263 -4.805744,11.16437 -4.284331,16.294 -2.850122,33.38278 3.961758,47.20481 2.646624,5.37028 7.471359,11.6434 8.934467,11.61658 0.427172,-0.008 1.61234,-1.1956 2.633708,-2.63948 z m 446.099589,15.15372 c -19.93833,-38.68421 -50.93205,-72.15772 -88.78341,-95.88692 -3.75475,-2.35386 -6.82975,-4.47036 -6.83334,-4.70331 -0.004,-0.23296 2.00003,-2.3006 4.45248,-4.59475 20.02835,-18.73554 50.2623,-24.12492 76.78941,-13.68818 17.87001,7.03072 33.82855,23.14057 40.73703,41.12329 3.76472,9.79952 5.395,21.51532 4.58806,32.9715 -1.16297,16.51088 -8.72701,32.85149 -20.83026,44.99964 -3.25788,3.26997 -6.15251,5.94539 -6.43251,5.94539 -0.27999,0 -1.93935,-2.775 -3.68746,-6.16666 z m 9.00062,-16.33334 c 8.23111,-11.07943 12.0655,-25.05769 11.16545,-40.7037 -0.45424,-7.89638 -2.81981,-18.31732 -5.19062,-22.86608 -1.74862,-3.35499 -2.48544,-2.27307 -1.27058,1.86568 0.40965,1.39559 0.91769,6.13744 1.12898,10.53744 0.85433,17.79145 -3.90407,35.17118 -13.26382,48.44516 -0.63881,0.90597 -0.43476,1.61575 1.10203,3.83334 1.0373,1.49682 2.24481,2.7215 2.68335,2.7215 0.43855,0 2.07889,-1.725 3.64521,-3.83334 z"
  />
  <path
    fill="hsl(0 0% 98%)"
    d="m 215.00001,418.59499 c 5.95074,-0.59033 22.80578,-3.67698 27.95656,-5.11966 2.91573,-0.81667 2.76052,-1.81596 -0.43055,-2.77203 -6.69244,-2.0051 -20.15369,-9.70866 -43.19268,-24.71815 -14.01228,-9.12876 -21.03936,-13.12954 -29.79965,-16.96607 -11.21085,-4.90974 -25.64369,-8.3524 -35.0162,-8.3524 -3.24012,0 -3.23454,0.33278 0.18042,10.76124 8.02851,24.51716 18.76133,37.68159 35.7597,43.86138 12.19707,4.43427 24.19224,5.32449 44.5424,3.30569 z m 203.27031,0.004 c 9.98872,-1.35349 20.45782,-5.72314 27.87397,-11.6342 5.16392,-4.11591 11.3969,-12.55237 15.31953,-20.73528 3.41002,-7.11356 9.3008,-24.14472 8.69951,-25.15162 -0.46035,-0.77089 -11.13333,0.0438 -17.49665,1.3355 -16.42929,3.33508 -28.85949,9.52245 -60,29.86614 -11.76003,7.68267 -32.74433,19.05358 -35.16219,19.05358 -0.52191,0 -0.82477,0.37246 -0.67303,0.82768 0.55318,1.65953 22.47638,5.96474 36.16855,7.10266 7.7108,0.64082 17.54583,0.38222 25.27031,-0.66446 z"
  />
</svg>